<svg id="visual" viewBox="0 0 960 540" width="960" height="540" xmlns="http://www.w3.org/2000/svg" xmlns:xlink="http://www.w3.org/1999/xlink" version="1.1"><rect x="0" y="0" width="960" height="540" fill="#fdfdfd"></rect><defs><linearGradient id="grad1_0" x1="43.8%" y1="100%" x2="100%" y2="0%"><stop offset="14.444444444444446%" stop-color="#fdfdfd" stop-opacity="1"></stop><stop offset="85.55555555555554%" stop-color="#fdfdfd" stop-opacity="1"></stop></linearGradient></defs><defs><linearGradient id="grad2_0" x1="0%" y1="100%" x2="56.3%" y2="0%"><stop offset="14.444444444444446%" stop-color="#fdfdfd" stop-opacity="1"></stop><stop offset="85.55555555555554%" stop-color="#fdfdfd" stop-opacity="1"></stop></linearGradient></defs><g transform="translate(960, 540)"><path d="M-486 0C-459.8 -43.3 -433.6 -86.6 -423.2 -137.5C-412.8 -188.5 -418.3 -247.1 -393.2 -285.7C-368.1 -324.3 -312.5 -342.8 -267.4 -368.1C-222.4 -393.4 -187.8 -425.3 -144.9 -446C-102.1 -466.8 -51.1 -476.4 0 -486L0 0Z" fill="#971414"></path></g><g transform="translate(0, 0)"><path d="M486 0C485.3 53.9 484.5 107.9 462.2 150.2C439.9 192.5 396 223.2 365.7 265.7C335.4 308.1 318.7 362.4 281.5 387.5C244.4 412.7 186.9 408.8 136.6 420.4C86.3 431.9 43.1 459 0 486L0 0Z" fill="#971414"></path></g></svg>