<svg id="visual" viewBox="0 0 1538 1500" width="1538" height="1500" xmlns="http://www.w3.org/2000/svg" xmlns:xlink="http://www.w3.org/1999/xlink" version="1.1"><rect x="0" y="0" width="1538" height="1500" fill="#fdfdfd"></rect><defs><linearGradient id="grad1_0" x1="2.5%" y1="100%" x2="100%" y2="0%"><stop offset="29.493333333333332%" stop-color="#fdfdfd" stop-opacity="1"></stop><stop offset="70.50666666666667%" stop-color="#fdfdfd" stop-opacity="1"></stop></linearGradient></defs><defs><linearGradient id="grad2_0" x1="0%" y1="100%" x2="97.5%" y2="0%"><stop offset="29.493333333333332%" stop-color="#fdfdfd" stop-opacity="1"></stop><stop offset="70.50666666666667%" stop-color="#fdfdfd" stop-opacity="1"></stop></linearGradient></defs><g transform="translate(1538, 1500)"><path d="M-966.8 0C-879.5 -81.1 -792.2 -162.2 -740.9 -240.7C-689.5 -319.2 -674.1 -395.2 -639.1 -464.4C-604.1 -533.5 -549.5 -595.9 -493.7 -679.6C-438 -763.2 -381.2 -868 -298.7 -919.4C-216.3 -970.8 -108.1 -968.8 0 -966.8L0 0Z" fill="#971414"></path></g><g transform="translate(0, 0)"><path d="M966.8 0C901.4 86.6 836 173.2 795.1 258.3C754.1 343.5 737.6 427.2 702.2 510.2C666.8 593.2 612.5 675.5 543.7 748.3C474.9 821.2 391.8 884.6 298.7 919.4C205.7 954.3 102.9 960.5 0 966.8L0 0Z" fill="#971414"></path></g></svg>